<svg width="1917" height="1917" viewBox="0 0 1917 1917" fill="none" xmlns="http://www.w3.org/2000/svg">
<path d="M1855.6 957.002C1851.55 678.064 1694.07 451.843 1461.11 327.537C1354.33 272.349 1251.29 256.698 1150.87 256.549C1064.46 256.474 966.812 271.076 872.609 315.257C659.493 410.508 480.149 630.289 461.877 896.198C454.389 984.634 471.312 1067.75 485.241 1122.87C474.607 1075.77 469.365 1020.73 472.511 975.424C493.927 675.668 732.579 330.458 1131.63 330.458C1475.72 330.458 1773.97 600.785 1786.63 945.695C1796.14 1289.41 1521.17 1656.86 1084.9 1656.63C1113.66 1659.03 1132.53 1659.18 1153.64 1658.88C1526.41 1653.19 1861.36 1346.17 1855.6 957.002Z" fill="url(#paint0_linear_70_3)"/>
<path d="M54.7393 1663.15C364.604 1653.94 648.335 1574.26 905.408 1354.63C978.344 1291.8 1033.23 1219.32 1092.24 1125.64C1092.24 1125.64 1090.89 1093.36 1069.33 1094.19C1047.76 1095.01 869.315 1275.63 763.58 1364.14C536.311 1557.19 308.068 1646.6 54.9639 1663.15H54.7393Z" fill="url(#paint1_linear_70_3)"/>
<path d="M1378.59 822.213L910.95 943.449C868.566 954.606 871.711 1007.1 908.403 1021.18L1106.39 1104.3L1152.07 1323.4C1161.58 1361.89 1213.78 1355.98 1223.88 1325.35L1420.08 883.393C1438.05 848.123 1417.91 814.875 1378.59 822.213Z" fill="url(#paint2_linear_70_3)"/>
<defs>
<linearGradient id="paint0_linear_70_3" x1="1663.15" y1="442.108" x2="487.487" y2="1122.49" gradientUnits="userSpaceOnUse">
<stop stop-color="#0053EF"/>
<stop offset="1" stop-color="#013BA2"/>
</linearGradient>
<linearGradient id="paint1_linear_70_3" x1="654.5" y1="1466.5" x2="1193" y2="903" gradientUnits="userSpaceOnUse">
<stop stop-color="#0053EF"/>
<stop offset="1" stop-color="#0076FA" stop-opacity="0.71"/>
</linearGradient>
<linearGradient id="paint2_linear_70_3" x1="1204.12" y1="829.702" x2="1204.12" y2="1350.14" gradientUnits="userSpaceOnUse">
<stop stop-color="#0053EF"/>
<stop offset="1" stop-color="#013BA2"/>
</linearGradient>
</defs>
</svg>
